<svg width="256" height="256" viewBox="0 0 256 256" fill="none" xmlns="http://www.w3.org/2000/svg">
<path d="M100.642 242.533C97.4544 242.533 94.7839 241.497 92.631 239.424C90.4781 237.352 89.3979 234.79 89.3904 231.739C89.3829 228.688 90.4631 226.126 92.631 224.053C94.7989 221.981 97.4694 220.944 100.642 220.944H168.155C171.343 220.944 174.017 221.981 176.178 224.053C178.338 226.126 179.414 228.688 179.407 231.739C179.399 234.79 178.319 237.355 176.166 239.435C174.013 241.515 171.343 242.548 168.155 242.533H100.642ZM51.9773 134.589L8.37562 92.7608C6.12521 90.6019 5 88.04 5 85.0752C5 82.1103 6.12521 79.5448 8.37562 77.3788C10.626 75.2127 13.2515 74.1333 16.2521 74.1404C19.2526 74.1476 21.8781 75.2271 24.1285 77.3788L75.888 127.033C78.1384 129.192 79.2636 131.711 79.2636 134.589C79.2636 137.468 78.1384 139.986 75.888 142.145L24.1285 191.799C21.8781 193.958 19.2526 195.038 16.2521 195.038C13.2515 195.038 10.626 193.958 8.37562 191.799C6.12521 189.641 5 187.079 5 184.114C5 181.149 6.12521 178.584 8.37562 176.417L51.9773 134.589Z" fill="white"/>
<path d="M65.14 34.715V14H85.855V34.715H65.14ZM106.57 34.715V14H127.285V34.715H106.57ZM230.86 200.435V179.72H251.575V200.435H230.86ZM230.86 159.005V138.29H251.575V159.005H230.86ZM251.575 117.575H230.86V65.7875C230.86 57.1563 227.839 49.8197 221.797 43.7778C215.755 37.7359 208.419 34.715 199.788 34.715H148V14H199.788C214.115 14 226.33 19.051 236.432 29.153C246.534 39.255 251.582 51.4665 251.575 65.7875V117.575Z" fill="white"/>
</svg>
